<svg height='4.5rem' width='4.5rem'  fill="#ffffff" xmlns="http://www.w3.org/2000/svg" data-name="Layer 1" viewBox="0 0 98 98" x="0px" y="0px"><title>03</title><g data-name="Group"><path data-name="Compound Path" d="M95.9,72c0-4.9-9.2-6.5-15.9-6.8V51h0v-.2c0-5.4-12-6.8-18.4-6.8a44.5,44.5,0,0,0-6.1.4A26,26,0,0,0,41,26.9L50.3,9.7a4,4,0,0,0-.4-4.3,3.8,3.8,0,0,0-4.1-1.5l-3.1.7a48.8,48.8,0,0,1-19.4.6L14,3.6a3.9,3.9,0,0,0-4,1.6,3.8,3.8,0,0,0-.2,4.2l9.3,17.5A25.9,25.9,0,0,0,4,49.1L2,81.7a2.3,2.3,0,0,0,.6,1.6A2.1,2.1,0,0,0,4,84H27a16.8,16.8,0,0,0,14.5,7.7,17.7,17.7,0,0,0,10.8-3.8,41.6,41.6,0,0,0,8.4.9c1.4,4.5,11.4,5.7,17.5,5.7S96,93,96,87.6V72Zm-4,7.4v.3c-.7,1.1-6,3-14,3S65.6,81,64.4,79.9V76.7c3.8,1.6,9.5,2.2,13.5,2.2s10.1-.6,14-2.3ZM48.1,58V55.4c3.9,1.6,9.6,2.2,13.6,2.2S71.9,57,76,55.2v2.7a.7.7,0,0,0-.1.5c-.8,1.1-6.1,3-14.3,3a43.7,43.7,0,0,1-9.4-1h-.1A16.3,16.3,0,0,0,48.1,58Zm13.5,7.4c4,0,10.3-.6,14.4-2.4v2.2c-5.1.2-11.8,1.2-14.5,4H58.2a18.1,18.1,0,0,0-1.8-4A44.1,44.1,0,0,0,61.6,65.4Zm-2.7,7.7h1.4V77H58.7a12.3,12.3,0,0,0,.2-2.7Zm-1.3,7.7,2.8.2v3.8a33.4,33.4,0,0,1-4.9-.4A15.8,15.8,0,0,0,57.6,80.8Zm20.3-5.9c-8.3,0-12.8-1.9-13.6-2.9.8-.9,5.3-2.8,13.6-2.8S90.8,70.9,91.8,72C90.8,73.1,85.7,74.9,77.9,74.9Zm-2-24.2c-1.2,1.1-6.5,2.9-14.3,2.9S48.8,51.7,48,50.7c.8-.9,5.3-2.8,13.6-2.8S74.7,49.6,75.9,50.7ZM13.3,7.5l9.3,1.6a53,53,0,0,0,21-.6l3.2-.7L37.2,25.5l-1.4-.4,1.3-6.5a2.1,2.1,0,0,0-1.6-2.4,2,2,0,0,0-2.3,1.6l-1.3,6.7H29.8l-3.2-10a2,2,0,0,0-2.5-1.3,2.2,2.2,0,0,0-1.3,2.6l2.9,9-2.8.7ZM6.1,80,7.9,49.4A22.3,22.3,0,0,1,30.1,28.5,22.1,22.1,0,0,1,51.5,45c-4.2,1-7.6,2.7-7.6,5.7v.6l.2,5.6-2.6-.2A17.5,17.5,0,0,0,24.1,74.2,19.5,19.5,0,0,0,25,80Zm35.4,7.6A13.5,13.5,0,1,1,54.9,74.2,13.4,13.4,0,0,1,41.5,87.6Zm36.7,2.9c-8.6,0-13.1-2-13.7-2.9V84.5c3.6,1.6,8.9,2.2,13.4,2.2s10.2-.6,14.1-2.3v3.1C91.3,88.6,86.2,90.5,78.2,90.5Z"></path><path data-name="Compound Path" d="M41.5,64.3a9.9,9.9,0,1,0,9.9,9.9A9.9,9.9,0,0,0,41.5,64.3Zm0,15.7a5.9,5.9,0,1,1,5.9-5.8A5.8,5.8,0,0,1,41.5,80Z"></path></g></svg>