<svg version="1" xmlns="http://www.w3.org/2000/svg" width="533.333" height="533.333" viewBox="0 0 400.000000 400.000000"><path d="M67.6 16.3C62 22.1 59.7 29.6 59.7 42c0 11.9 2.3 20 7.3 25 1.9 1.9 4.4 4 5.4 4.6 1.8.9 1.9 1.5.8 7-.7 3.2-4.1 20.7-7.7 38.9-3.5 18.1-6.9 35.2-7.5 38-1.6 7.7-5 24.8-5 25.2 0 .5 292.6.4 293.2-.2.2-.3-.6-5.5-1.8-11.7-1.2-6.2-5.9-30-10.4-52.8-4.5-22.8-8.3-42.1-8.5-42.7-.2-.7 1.2-2 3.1-2.9 13.7-6.5 15.6-43.5 2.9-55.4l-2.7-2.5-128.5-.3L71.7 12l-4.1 4.3zM319 25.2c12.2 6.2 12.2 25.4 0 31.5l-4.4 2.3H84.5l-3.9-2.3c-4.8-2.7-7.5-6.2-8.6-11.3-2.2-9.1 2.4-18.4 10.5-21.2 2-.7 40.4-1.1 117.5-1.1l114.6-.1 4.4 2.2zM53.3 194.5c2.3 16.3 15.8 27.5 33.2 27.5 17.3 0 31-11.1 33.1-26.9l.7-5.1H52.7l.6 4.5zm54.7 5.2c0 .5-.8 2-1.8 3.5-5.9 8.9-20.1 12.4-30.7 7.4-4.7-2.1-11.5-8.5-11.5-10.6 0-.6 8.5-1 22-1 12.1 0 22 .3 22 .7zM128.3 194.5c1.6 11.2 9.8 21.5 20.3 25.5 7.4 2.7 18.4 2.7 25.8 0 10.6-4 19-14.4 20.3-25.1l.6-4.9h-67.6l.6 4.5zm54.7 5.2c0 2.9-4.6 7.4-10.1 10.2-8 4-15.1 4.2-22.4.6-2.7-1.3-5.7-3-6.5-3.7-1.9-1.6-5-5.9-5-7 0-.5 9.9-.8 22-.8s22 .3 22 .7zM204.5 190.9c-.8 1.3 1.4 9.8 3.7 14.4 2.6 5.2 8.4 10.8 14.3 13.7 4.4 2.2 6.3 2.5 15.5 2.5 8.9 0 11.2-.4 15.1-2.3 9.7-4.8 16.2-13.9 18.4-25.5l.7-3.7h-33.5c-20.1 0-33.8.4-34.2.9zm54.9 9.3c-4.5 8.1-12.3 12.8-21.1 12.8s-18.7-5-21.8-11.1l-1.6-2.9h22.6c17.8 0 22.5.3 21.9 1.2zM279.6 190.8c-.9 1.4 2.4 12.3 4.9 16.2 11.8 18.7 44.1 18.9 56.7.5 2.4-3.6 5.8-13.1 5.8-16.3 0-1.4-66.5-1.8-67.4-.4zm55.4 9c0 2.2-6.9 8.6-11.6 10.8-9.9 4.5-22.7 2.3-29.5-5.2-5.9-6.5-6.3-6.4 18.6-6.4 12.4 0 22.5.3 22.5.8zM186.5 227.1c-6.6 2.8-12.6 5.5-13.2 6.1-1 .8-1.3 6.1-1.3 20.2 0 18 .2 19.4 2.4 24.2 3.1 6.6 7.7 11.6 17.5 19.3l7.9 6.1 5.9-4.5c8.6-6.4 16.9-15.1 19.5-20.4 2.1-4.2 2.3-6.2 2.6-24.2.2-15.2 0-19.8-1-20.6-1.6-1.3-23.5-10.3-26.3-10.9-1.1-.2-7.4 2-14 4.7zm25 5.5c5 2 9.6 4.1 10.3 4.7 1.1.9 1.3 4.7 1 18.2-.3 16.4-.4 17.2-3 21.7-2.3 3.8-7.5 9-18 17.7-1.7 1.3-1.8-.3-1.8-32.9 0-27 .3-34.1 1.3-33.7.6.3 5.3 2.2 10.2 4.3z"/><path d="M66 314v73h268V241h-37v109l-97.7-.2-97.8-.3-.3-54.3-.2-54.2H66v73z"/><path d="M132.2 284.7c-5 2.5-10 8.9-10.8 13.8-.8 5.4.2 9.8 2.6 12 1.6 1.5 2.1 1.5 4.2.2 1.2-.8 3.3-1.8 4.6-2.2 5-1.5 1.7 3.4-10.5 15.7l-12.7 12.7 2.4 2.6c1.3 1.4 2.8 2.5 3.4 2.5.6 0 6.5-5.4 13.1-12 11.3-11.3 15.5-14.1 15.5-10.4 0 .9-.8 2.9-1.7 4.5-1.6 2.7-1.6 3-.1 4.5.9.9 3.1 1.9 4.9 2.3 13.6 2.8 27-12.4 21.4-24.3-1.9-4-2.9-4.3-7.1-2.1-3.8 2-5.4 1.9-5.4-.3 0-2.3-5-7.2-7.3-7.2-2.1 0-2.3-3.9-.2-6.6 2.1-2.8 1.8-4.2-1.5-5.9-3.8-2-10.6-1.9-14.8.2zM233.2 291.3c-4.2 4.3-4.2 4.3-2.2 6.2 2.2 2 3.1 1.6 8.3-3.8 3-3.2 3.2-3.8 1.5-5.5-1.9-1.9-3.1-1.4-7.6 3.1zM238.1 296.6c-3.4 3.6-6 7.1-5.8 7.7.2.7 1.4 1.4 2.8 1.5 3 .5 4.7 1.8 7.1 5.7 1.2 2 1.8 2.4 1.8 1.3 0-2.3-6.9-9.1-8.6-8.4-3.3 1.3-1.8-1.5 4-7.2 6.2-6.1 8.3-7.5 7.3-4.8-.3.7 1.1 2.9 3.1 4.9l3.7 3.5 7.7-.5c4.3-.3 7.5-.9 7.2-1.4-.5-.9-8.5-.5-11.9.6-2.4.7-8.5-4.7-8.5-7.6 0-3.7-3.8-1.9-9.9 4.7z"/><path d="M240.6 297.9c-3.8 3.9-4.1 6.1-.7 6.1 2.4 0 7.4-5.4 6.9-7.6-.5-3-2.2-2.6-6.2 1.5zM272.8 301.7c3.7 1.8 9.2 7.7 9.2 9.8 0 .8.5 1.5 1 1.5 1.2 0-1.5-5.6-3.8-8-2.4-2.5-6.6-5-8.2-5-.8 0 0 .8 1.8 1.7zM245 315.6c-1.6 4-1.2 7.5 1.4 13 3.3 7.1 7.4 9.8 15.6 10.2 7.7.4 11.8-1.4 16.3-6.9 3.1-4 4.3-9.6 3.3-15.3l-.7-3.6H246l-1 2.6zM284.3 320.5c0 3.8.2 5.3.4 3.2.2-2 .2-5.2 0-7-.2-1.7-.4-.1-.4 3.8zM241.3 320.5c0 3.3.2 4.5.4 2.7.2-1.8.2-4.5 0-6s-.4 0-.4 3.3z"/><path d="M243.1 329.2c-.1 2.4 6.2 9.2 10.3 11.2 1.9.9 4.7 1.5 6.3 1.5 2.6-.1 2.6-.2-.7-.9-6.9-1.5-12.8-6-15-11.3-.7-1.7-.9-1.8-.9-.5zM281.2 331.4c-1.1 1.9-4 4.9-6.3 6.5-4.5 3.3-4.6 4.2-.1 1.4 3.5-2.2 6.4-5.1 8-8.2 2-3.8.7-3.6-1.6.3zM265.3 341.7c.9.2 2.5.2 3.5 0 .9-.3.1-.5-1.8-.5-1.9 0-2.7.2-1.7.5z"/></svg>